<svg xmlns="http://www.w3.org/2000/svg" viewBox="0 0 196 80">
  <path d="m117.0013,53.2255l-14.2504,14.275-3.5508-3.5508,15.7492-15.7247h26.0251v2.5002c0,6.9037-5.5959,12.4996-12.4996,12.4996h-5.0005v-5.0005h5.0005c3.1796.0017,6.016-2.003,7.0754-5.0005h-18.5506l.0017.0017h0Z" fill="#fff"/>
  <path d="m122.0001,73.2259l-6.7497,6.7741-3.5508-3.5508,8.2502-8.2257h22.5006l22.1504-22.175c-3.1253-1.4287-6.8022-.8579-9.3497,1.4497l-7.5008,7.5008-3.5508-3.5508,7.5008-7.5008c5.2334-4.8465,13.3172-4.8465,18.5506,0l1.7491,1.7754-27.4994,27.5011h-22.5006v.0017h0v.0002h0Z" fill="#fff"/>
  <path d="m135.9739,41.7485l-14.1752-14.1507c-3.768-3.8082-3.768-9.9415,0-13.7498,3.8555-3.6506,9.8943-3.6506,13.7498,0l.4254.4254.4254-.4254c3.8555-3.6506,9.8943-3.6506,13.7498,0,3.7679,3.8082,3.7679,9.9415,0,13.7498l-14.1752,14.1507Zm-10.6244-17.7014l2.1746,2.2008,8.4498,8.4498,10.6244-10.6507c1.8367-1.8349,1.8385-4.8097.0035-6.6464l-.0035-.0035c-1.8594-1.7999-4.8132-1.7999-6.6744,0l-3.95,3.95-3.95-3.95c-1.8594-1.7999-4.8132-1.7999-6.6744,0-1.8367,1.8349-1.8385,4.8097-.0035,6.6464l.0035.0035h0Z" fill="#fff"/>
</svg>